pose20.1
version=1
nRows=4
nColumns=213
inDegrees=yes
endheader
time	platform_rx	platform_ry	platform_rz	platform_ty	pelvis_tilt	pelvis_list	pelvis_rotation	pelvis_tx	pelvis_ty	pelvis_tz	hip_flexion_r	hip_adduction_r	hip_rotation_r	knee_angle_r	knee_angle_r_beta	ankle_angle_r	subtalar_angle_r	mtp_angle_r	hip_flexion_l	hip_adduction_l	hip_rotation_l	knee_angle_l	knee_angle_l_beta	ankle_angle_l	subtalar_angle_l	mtp_angle_l	lumbar_extension	lumbar_bending	lumbar_rotation	arm_flex_r	arm_add_r	arm_rot_r	elbow_flex_r	pro_sup_r	wrist_flex_r	wrist_dev_r	arm_flex_l	arm_add_l	arm_rot_l	elbow_flex_l	pro_sup_l	wrist_flex_l	wrist_dev_l	platform_rx_u	platform_ry_u	platform_rz_u	platform_ty_u	pelvis_tilt_u	pelvis_list_u	pelvis_rotation_u	pelvis_tx_u	pelvis_ty_u	pelvis_tz_u	hip_flexion_r_u	hip_adduction_r_u	hip_rotation_r_u	knee_angle_r_u	knee_angle_r_beta_u	ankle_angle_r_u	subtalar_angle_r_u	mtp_angle_r_u	hip_flexion_l_u	hip_adduction_l_u	hip_rotation_l_u	knee_angle_l_u	knee_angle_l_beta_u	ankle_angle_l_u	subtalar_angle_l_u	mtp_angle_l_u	lumbar_extension_u	lumbar_bending_u	lumbar_rotation_u	arm_flex_r_u	arm_add_r_u	arm_rot_r_u	elbow_flex_r_u	pro_sup_r_u	wrist_flex_r_u	wrist_dev_r_u	arm_flex_l_u	arm_add_l_u	arm_rot_l_u	elbow_flex_l_u	pro_sup_l_u	wrist_flex_l_u	wrist_dev_l_u	addbrev_r.activation	addlong_r.activation	addlong_r.fiber_length	addmagDist_r.activation	addmagIsch_r.activation	addmagIsch_r.fiber_length	addmagMid_r.activation	addmagProx_r.activation	bflh_r.activation	bflh_r.fiber_length	bfsh_r.activation	edl_r.activation	edl_r.fiber_length	ehl_r.activation	ehl_r.fiber_length	fdl_r.activation	fdl_r.fiber_length	fhl_r.activation	fhl_r.fiber_length	gaslat_r.activation	gaslat_r.fiber_length	gasmed_r.activation	gasmed_r.fiber_length	glmax1_r.activation	glmax2_r.activation	glmax3_r.activation	glmed1_r.activation	glmed2_r.activation	glmed3_r.activation	glmin1_r.activation	glmin2_r.activation	glmin3_r.activation	glmin3_r.fiber_length	grac_r.activation	iliacus_r.activation	perbrev_r.activation	perbrev_r.fiber_length	perlong_r.activation	perlong_r.fiber_length	piri_r.activation	piri_r.fiber_length	psoas_r.activation	recfem_r.activation	recfem_r.fiber_length	sart_r.activation	semimem_r.activation	semimem_r.fiber_length	semiten_r.activation	semiten_r.fiber_length	soleus_r.activation	soleus_r.fiber_length	tfl_r.activation	tfl_r.fiber_length	tibant_r.activation	tibant_r.fiber_length	tibpost_r.activation	tibpost_r.fiber_length	vasint_r.activation	vasint_r.fiber_length	vaslat_r.activation	vaslat_r.fiber_length	vasmed_r.activation	vasmed_r.fiber_length	addbrev_l.activation	addlong_l.activation	addlong_l.fiber_length	addmagDist_l.activation	addmagIsch_l.activation	addmagIsch_l.fiber_length	addmagMid_l.activation	addmagProx_l.activation	bflh_l.activation	bflh_l.fiber_length	bfsh_l.activation	edl_l.activation	edl_l.fiber_length	ehl_l.activation	ehl_l.fiber_length	fdl_l.activation	fdl_l.fiber_length	fhl_l.activation	fhl_l.fiber_length	gaslat_l.activation	gaslat_l.fiber_length	gasmed_l.activation	gasmed_l.fiber_length	glmax1_l.activation	glmax2_l.activation	glmax3_l.activation	glmed1_l.activation	glmed2_l.activation	glmed3_l.activation	glmin1_l.activation	glmin2_l.activation	glmin3_l.activation	glmin3_l.fiber_length	grac_l.activation	iliacus_l.activation	perbrev_l.activation	perbrev_l.fiber_length	perlong_l.activation	perlong_l.fiber_length	piri_l.activation	piri_l.fiber_length	psoas_l.activation	recfem_l.activation	recfem_l.fiber_length	sart_l.activation	semimem_l.activation	semimem_l.fiber_length	semiten_l.activation	semiten_l.fiber_length	soleus_l.activation	soleus_l.fiber_length	tfl_l.activation	tfl_l.fiber_length	tibant_l.activation	tibant_l.fiber_length	tibpost_l.activation	tibpost_l.fiber_length	vasint_l.activation	vasint_l.fiber_length	vaslat_l.activation	vaslat_l.fiber_length	vasmed_l.activation	vasmed_l.fiber_length
      0.00479272	     20.00000000	     -0.00000000	     -0.00000000	      0.25000000	    -24.94160896	     -0.00000003	     -0.00000000	     -0.03995872	      0.56045024	     -0.00000000	     99.67719194	    -18.08478793	     -1.04946477	    103.96255232	    103.96255232	     27.93924922	      0.00000000	     -0.00000000	     99.67718996	    -18.08478457	     -1.04946470	    103.96255249	    103.96255249	     27.93924972	      0.00000000	     -0.00000000	     -0.39642003	      0.00000004	     -0.00000000	     90.03409724	     -0.00390098	     89.83302433	      0.15916290	      0.14943137	      0.00000000	      0.00000000	     90.03416655	     -0.00389838	     89.82523469	      0.15916148	      0.14943161	      0.00000000	      0.00000000	      0.00000000	     -0.00000000	      0.00000000	      0.00000000	    131.25066560	     -0.00001323	     -0.00000061	      0.01688165	      0.18818195	     -0.00000003	   -135.18016387	     -9.03367627	     23.12399737	    -17.70003600	    -17.70003600	   -838.09969196	     -0.00000000	     -0.00000000	   -135.18014970	     -9.03366835	     23.12402748	    -17.70003119	    -17.70003119	   -838.09970529	      0.00000000	      0.00000000	   -164.97367510	      0.00001754	     -0.00000096	     35.94783487	     -1.60987380	     -1.01401755	      4.49989911	      0.46308768	     -0.00000000	     -0.00000000	     35.94755743	     -1.60970263	     -1.01404357	      4.49931068	      0.46318475	     -0.00000000	      0.00000000	      0.01000000	      0.01000000	      0.10104434	      0.01000000	      0.01000000	      0.22248033	      0.01000000	      0.01000000	      0.01000000	      0.12165169	      0.01000000	      0.01000000	      0.05159528	      0.01000000	      0.05910880	      0.01000000	      0.04764185	      0.01000000	      0.05632700	      0.01000000	      0.05076116	      0.01000000	      0.03775865	      0.01000000	      0.01000000	      0.01000000	      0.01000000	      0.01000000	      0.01000000	      0.01000000	      0.01000000	      0.01000000	      0.04467751	      0.01000000	      0.01000000	      0.01000000	      0.05076764	      0.01000000	      0.05748972	      0.01000000	      0.03304807	      0.01000000	      0.01000000	      0.05228880	      0.01000000	      0.01000000	      0.07691173	      0.01000000	      0.22834804	      0.01000000	      0.06104925	      0.01000000	      0.02401564	      0.01000000	      0.04536314	      0.01000000	      0.04206891	      0.01000000	      0.13851422	      0.01000000	      0.13497897	      0.01000000	      0.13235032	      0.01000000	      0.01000000	      0.10104434	      0.01000000	      0.01000000	      0.22248033	      0.01000000	      0.01000000	      0.01000000	      0.12165169	      0.01000000	      0.01000000	      0.05159528	      0.01000000	      0.05910880	      0.01000000	      0.04764185	      0.01000000	      0.05632700	      0.01000000	      0.05076116	      0.01000000	      0.03775865	      0.01000000	      0.01000000	      0.01000000	      0.01000000	      0.01000000	      0.01000000	      0.01000000	      0.01000000	      0.01000000	      0.04467751	      0.01000000	      0.01000000	      0.01000000	      0.05076764	      0.01000000	      0.05748972	      0.01000000	      0.03304807	      0.01000000	      0.01000000	      0.05228880	      0.01000000	      0.01000000	      0.07691173	      0.01000000	      0.22834804	      0.01000000	      0.06104925	      0.01000000	      0.02401564	      0.01000000	      0.04536314	      0.01000000	      0.04206891	      0.01000000	      0.13851422	      0.01000000	      0.13497897	      0.01000000	      0.13235032
      0.00553901	     20.00000000	     -0.00000000	      0.00000000	      0.25000000	    -24.83610817	     -0.00000004	     -0.00000000	     -0.03994524	      0.56060169	     -0.00000000	     99.56835712	    -18.09204228	     -1.03105638	    103.94783327	    103.94783327	     27.26946529	      0.00000000	     -0.00000000	     99.56835516	    -18.09203891	     -1.03105629	    103.94783345	    103.94783345	     27.26946578	      0.00000000	      0.00000000	     -0.52902731	      0.00000006	     -0.00000000	     90.06299502	     -0.00519540	     89.83220867	      0.16278107	      0.14980577	      0.00000000	      0.00000000	     90.06306411	     -0.00519266	     89.82441901	      0.16277918	      0.14980608	     -0.00000000	      0.00000000	      0.00000000	      0.00000000	      0.00000000	      0.00000000	    151.47076009	     -0.00001529	     -0.00000068	      0.01923801	      0.21770576	     -0.00000003	   -156.50055181	    -10.40607950	     26.17937348	    -21.82329194	    -21.82329194	   -956.26570877	     -0.00000000	      0.00000000	   -156.50053542	    -10.40607042	     26.17940829	    -21.82328640	    -21.82328640	   -956.26572423	      0.00000000	      0.00000000	   -190.38745614	      0.00002025	     -0.00000107	     41.49364283	     -1.85912002	     -1.17211758	      5.19666963	      0.54134843	     -0.00000000	      0.00000000	     41.49332230	     -1.85892162	     -1.17214776	      5.19598798	      0.54146100	     -0.00000000	      0.00000000	      0.01000000	      0.01000000	      0.10102011	      0.01000000	      0.01000000	      0.22241361	      0.01000000	      0.01000000	      0.01000000	      0.12161803	      0.01000000	      0.01000000	      0.05195500	      0.01000000	      0.05951635	      0.01000000	      0.04762984	      0.01000000	      0.05627774	      0.01000000	      0.05062765	      0.01000000	      0.03764900	      0.01000000	      0.01000000	      0.01000000	      0.01000000	      0.01000000	      0.01000000	      0.01000000	      0.01000000	      0.01000000	      0.04465213	      0.01000000	      0.01000000	      0.01000000	      0.05073693	      0.01000000	      0.05744684	      0.01000000	      0.03302618	      0.01000000	      0.01000000	      0.05232480	      0.01000000	      0.01000000	      0.07688698	      0.01000000	      0.22829745	      0.01000000	      0.06083456	      0.01000000	      0.02401564	      0.01000000	      0.04580913	      0.01000000	      0.04204417	      0.01000000	      0.13851029	      0.01000000	      0.13497521	      0.01000000	      0.13234691	      0.01000000	      0.01000000	      0.10102011	      0.01000000	      0.01000000	      0.22241361	      0.01000000	      0.01000000	      0.01000000	      0.12161803	      0.01000000	      0.01000000	      0.05195500	      0.01000000	      0.05951635	      0.01000000	      0.04762984	      0.01000000	      0.05627774	      0.01000000	      0.05062765	      0.01000000	      0.03764900	      0.01000000	      0.01000000	      0.01000000	      0.01000000	      0.01000000	      0.01000000	      0.01000000	      0.01000000	      0.01000000	      0.04465213	      0.01000000	      0.01000000	      0.01000000	      0.05073693	      0.01000000	      0.05744684	      0.01000000	      0.03302618	      0.01000000	      0.01000000	      0.05232480	      0.01000000	      0.01000000	      0.07688698	      0.01000000	      0.22829744	      0.01000000	      0.06083456	      0.01000000	      0.02401564	      0.01000000	      0.04580913	      0.01000000	      0.04204417	      0.01000000	      0.13851029	      0.01000000	      0.13497521	      0.01000000	      0.13234691
      0.00628769	     20.00000000	     -0.00000000	      0.00000000	      0.25000000	    -24.71512973	     -0.00000005	     -0.00000000	     -0.03992999	      0.56077581	     -0.00000000	     99.44315033	    -18.10034591	     -1.01036693	    103.92979470	    103.92979470	     26.51032698	      0.00000000	     -0.00000000	     99.44314838	    -18.10034254	     -1.01036681	    103.92979487	    103.92979487	     26.51032746	      0.00000000	      0.00000000	     -0.68108676	      0.00000007	     -0.00000000	     90.09614020	     -0.00668106	     89.83127124	      0.16693388	      0.15024264	      0.00000000	      0.00000000	     90.09620903	     -0.00667816	     89.82348156	      0.16693144	      0.15024305	     -0.00000000	      0.00000000	      0.00000000	      0.00000000	      0.00000000	     -0.00000000	    171.70070065	     -0.00001737	     -0.00000075	      0.02149232	      0.24744451	     -0.00000004	   -177.99566741	    -11.77428936	     29.05697219	    -26.44941464	    -26.44941464	  -1071.00608310	     -0.00000000	      0.00000000	   -177.99564873	    -11.77427916	     29.05701177	    -26.44940837	    -26.44940837	  -1071.00610070	      0.00000000	      0.00000000	   -215.81050126	      0.00002298	     -0.00000115	     47.04861054	     -2.10975607	     -1.33243382	      5.89743685	      0.62701265	     -0.00000000	      0.00000000	     47.04824652	     -2.10952954	     -1.33246828	      5.89665927	      0.62714124	     -0.00000000	      0.00000000	      0.01000000	      0.01000000	      0.10099163	      0.01000000	      0.01000000	      0.22235968	      0.01000000	      0.01000000	      0.01000000	      0.12157810	      0.01000000	      0.01000000	      0.05237187	      0.01000000	      0.05998632	      0.01000000	      0.04761419	      0.01000000	      0.05621425	      0.01000000	      0.05049385	      0.01000000	      0.03753911	      0.01000000	      0.01000000	      0.01000000	      0.01000000	      0.01000000	      0.01000000	      0.01000000	      0.01000000	      0.01000000	      0.04462272	      0.01000000	      0.01000000	      0.01000000	      0.05069947	      0.01000000	      0.05739260	      0.01000000	      0.03300030	      0.01000000	      0.01000000	      0.05237142	      0.01000000	      0.01000000	      0.07685634	      0.01000000	      0.22823875	      0.01000000	      0.06058748	      0.01000000	      0.02401564	      0.01000000	      0.04632351	      0.01000000	      0.04201176	      0.01000000	      0.13850544	      0.01000000	      0.13497055	      0.01000000	      0.13234269	      0.01000000	      0.01000000	      0.10099162	      0.01000000	      0.01000000	      0.22235968	      0.01000000	      0.01000000	      0.01000000	      0.12157810	      0.01000000	      0.01000000	      0.05237187	      0.01000000	      0.05998632	      0.01000000	      0.04761419	      0.01000000	      0.05621425	      0.01000000	      0.05049385	      0.01000000	      0.03753911	      0.01000000	      0.01000000	      0.01000000	      0.01000000	      0.01000000	      0.01000000	      0.01000000	      0.01000000	      0.01000000	      0.04462272	      0.01000000	      0.01000000	      0.01000000	      0.05069947	      0.01000000	      0.05739260	      0.01000000	      0.03300030	      0.01000000	      0.01000000	      0.05237142	      0.01000000	      0.01000000	      0.07685634	      0.01000000	      0.22823875	      0.01000000	      0.06058748	      0.01000000	      0.02401564	      0.01000000	      0.04632350	      0.01000000	      0.04201176	      0.01000000	      0.13850544	      0.01000000	      0.13497055	      0.01000000	      0.13234269
      0.00689836	     20.00000000	     -0.00000000	      0.00000000	      0.25000000	    -24.60525129	     -0.00000007	     -0.00000000	     -0.03991632	      0.56093435	     -0.00000000	     99.32907806	    -18.10787514	     -0.99194580	    103.91239010	    103.91239010	     25.82852033	      0.00000000	     -0.00000000	     99.32907612	    -18.10787176	     -0.99194565	    103.91239028	    103.91239028	     25.82852080	      0.00000000	      0.00000000	     -0.81919116	      0.00000009	     -0.00000000	     90.12625277	     -0.00803196	     89.83041727	      0.17071015	      0.15064841	      0.00000000	      0.00000000	     90.12632137	     -0.00802892	     89.82262757	      0.17070721	      0.15064890	     -0.00000000	      0.00000000	      0.00000000	      0.00000000	      0.00000000	     -0.00000000	    188.15165765	     -0.00001908	     -0.00000078	      0.02324076	      0.27179220	     -0.00000004	   -195.61249513	    -12.88390336	     31.24972121	    -30.61248258	    -30.61248258	  -1161.49789248	     -0.00000000	      0.00000000	   -195.61247458	    -12.88389224	     31.24976472	    -30.61247573	    -30.61247573	  -1161.49791181	      0.00000000	      0.00000000	   -236.48159472	      0.00002521	     -0.00000121	     51.57103528	     -2.31462743	     -1.46458597	      6.47034075	      0.70285007	     -0.00000000	      0.00000000	     51.57063559	     -2.31437728	     -1.46462400	      6.46948292	      0.70299214	      0.00000000	      0.00000000	      0.01000000	      0.01000000	      0.10096530	      0.01000000	      0.01000000	      0.22224255	      0.01000000	      0.01000000	      0.01000000	      0.12154097	      0.01000000	      0.01000000	      0.05275254	      0.01000000	      0.06041420	      0.01000000	      0.04759832	      0.01000000	      0.05615192	      0.01000000	      0.05038480	      0.01000000	      0.03744958	      0.01000000	      0.01000000	      0.01000000	      0.01000000	      0.01000000	      0.01000000	      0.01000000	      0.01000000	      0.01000000	      0.04459587	      0.01000000	      0.01000000	      0.01000000	      0.05066401	      0.01000000	      0.05734012	      0.01000000	      0.03297636	      0.01000000	      0.01000000	      0.05241687	      0.01000000	      0.01000000	      0.07682688	      0.01000000	      0.22818506	      0.01000000	      0.06036283	      0.01000000	      0.02401564	      0.01000000	      0.04679212	      0.01000000	      0.04197926	      0.01000000	      0.13850073	      0.01000000	      0.13496601	      0.01000000	      0.13233859	      0.01000000	      0.01000000	      0.10096530	      0.01000000	      0.01000000	      0.22224254	      0.01000000	      0.01000000	      0.01000000	      0.12154097	      0.01000000	      0.01000000	      0.05275254	      0.01000000	      0.06041420	      0.01000000	      0.04759833	      0.01000000	      0.05615192	      0.01000000	      0.05038480	      0.01000000	      0.03744958	      0.01000000	      0.01000000	      0.01000000	      0.01000000	      0.01000000	      0.01000000	      0.01000000	      0.01000000	      0.01000000	      0.04459587	      0.01000000	      0.01000000	      0.01000000	      0.05066401	      0.01000000	      0.05734012	      0.01000000	      0.03297636	      0.01000000	      0.01000000	      0.05241687	      0.01000000	      0.01000000	      0.07682688	      0.01000000	      0.22818506	      0.01000000	      0.06036283	      0.01000000	      0.02401564	      0.01000000	      0.04679212	      0.01000000	      0.04197926	      0.01000000	      0.13850073	      0.01000000	      0.13496601	      0.01000000	      0.13233859
